REM DIRINDEX 1\2,1\3,1\4,1\5,1\6
REM DIRNAME folder01,folder02,folder03,folder04,folder05,folder06
TITLE ""
FILE "Disc2Track10.mp3" MP3
  TRACK 01 AUDIO
    TITLE "3:cjc030_02287"
    INDEX 01 00:00:00
  TRACK 02 AUDIO
    TITLE "0:"
    INDEX 01 00:00:64
  TRACK 03 AUDIO
    TITLE "4:cjc030_02288"
    INDEX 01 00:00:72
  TRACK 04 AUDIO
    TITLE "0:"
    INDEX 01 00:02:00
  TRACK 05 AUDIO
    TITLE "5:cjc030_02289"
    INDEX 01 00:02:10
  TRACK 06 AUDIO
    TITLE "0:"
    INDEX 01 00:03:15
  TRACK 07 AUDIO
    TITLE "6:cjc030_02290"
    INDEX 01 00:03:27
  TRACK 08 AUDIO
    TITLE "0:"
    INDEX 01 00:08:28
  TRACK 09 AUDIO
    TITLE "3:cjc030_02291"
    INDEX 01 00:09:02
  TRACK 10 AUDIO
    TITLE "0:"
    INDEX 01 00:10:08
  TRACK 11 AUDIO
    TITLE "4:cjc030_02292"
    INDEX 01 00:10:14
  TRACK 12 AUDIO
    TITLE "0:"
    INDEX 01 00:11:05
  TRACK 13 AUDIO
    TITLE "5:cjc030_02293"
    INDEX 01 00:11:13
  TRACK 14 AUDIO
    TITLE "0:"
    INDEX 01 00:12:20
  TRACK 15 AUDIO
    TITLE "3:cjc030_02294"
    INDEX 01 00:12:67
  TRACK 16 AUDIO
    TITLE "0:"
    INDEX 01 00:13:73
  TRACK 17 AUDIO
    TITLE "4:cjc030_02295"
    INDEX 01 00:14:07
  TRACK 18 AUDIO
    TITLE "0:"
    INDEX 01 00:15:09
  TRACK 19 AUDIO
    TITLE "5:cjc030_02296"
    INDEX 01 00:15:17
  TRACK 20 AUDIO
    TITLE "0:"
    INDEX 01 00:16:26
  TRACK 21 AUDIO
    TITLE "3:cjc030_02297"
    INDEX 01 00:17:08
  TRACK 22 AUDIO
    TITLE "0:"
    INDEX 01 00:18:05
  TRACK 23 AUDIO
    TITLE "4:cjc030_02298"
    INDEX 01 00:18:17
  TRACK 24 AUDIO
    TITLE "0:"
    INDEX 01 00:21:49
  TRACK 25 AUDIO
    TITLE "5:cjc030_02299"
    INDEX 01 00:21:57
  TRACK 26 AUDIO
    TITLE "0:"
    INDEX 01 00:22:58
  TRACK 27 AUDIO
    TITLE "6:cjc030_02300"
    INDEX 01 00:22:68
  TRACK 28 AUDIO
    TITLE "0:"
    INDEX 01 00:26:46
  TRACK 29 AUDIO
    TITLE "3:cjc030_02301"
    INDEX 01 00:27:18
  TRACK 30 AUDIO
    TITLE "0:"
    INDEX 01 00:28:17
  TRACK 31 AUDIO
    TITLE "4:cjc030_02302"
    INDEX 01 00:28:27
  TRACK 32 AUDIO
    TITLE "0:"
    INDEX 01 00:29:19
  TRACK 33 AUDIO
    TITLE "5:cjc030_02303"
    INDEX 01 00:29:25
  TRACK 34 AUDIO
    TITLE "0:"
    INDEX 01 00:30:26
  TRACK 35 AUDIO
    TITLE "3:cjc030_02304"
    INDEX 01 00:31:10
  TRACK 36 AUDIO
    TITLE "0:"
    INDEX 01 00:32:23
  TRACK 37 AUDIO
    TITLE "4:cjc030_02305"
    INDEX 01 00:32:29
  TRACK 38 AUDIO
    TITLE "0:"
    INDEX 01 00:34:40
  TRACK 39 AUDIO
    TITLE "5:cjc030_02306"
    INDEX 01 00:34:47
  TRACK 40 AUDIO
    TITLE "0:"
    INDEX 01 00:35:63
  TRACK 41 AUDIO
    TITLE "6:cjc030_02307"
    INDEX 01 00:35:74
  TRACK 42 AUDIO
    TITLE "0:"
    INDEX 01 00:39:60
  TRACK 43 AUDIO
    TITLE "3:cjc030_02308"
    INDEX 01 00:40:34
  TRACK 44 AUDIO
    TITLE "0:"
    INDEX 01 00:41:47
  TRACK 45 AUDIO
    TITLE "4:cjc030_02309"
    INDEX 01 00:41:55
  TRACK 46 AUDIO
    TITLE "0:"
    INDEX 01 00:44:65
  TRACK 47 AUDIO
    TITLE "5:cjc030_02310"
    INDEX 01 00:45:00
  TRACK 48 AUDIO
    TITLE "0:"
    INDEX 01 00:46:11
  TRACK 49 AUDIO
    TITLE "6:cjc030_02311"
    INDEX 01 00:46:23
  TRACK 50 AUDIO
    TITLE "0:"
    INDEX 01 00:51:36
  TRACK 51 AUDIO
    TITLE "3:cjc030_02312"
    INDEX 01 00:52:08
  TRACK 52 AUDIO
    TITLE "0:"
    INDEX 01 00:53:21
  TRACK 53 AUDIO
    TITLE "4:cjc030_02313"
    INDEX 01 00:53:31
  TRACK 54 AUDIO
    TITLE "0:"
    INDEX 01 00:54:56
  TRACK 55 AUDIO
    TITLE "5:cjc030_02314"
    INDEX 01 00:54:64
  TRACK 56 AUDIO
    TITLE "0:"
    INDEX 01 00:56:04
  TRACK 57 AUDIO
    TITLE "6:cjc030_02315"
    INDEX 01 00:56:14
  TRACK 58 AUDIO
    TITLE "0:"
    INDEX 01 01:02:46
  TRACK 59 AUDIO
    TITLE "3:cjc030_02316"
    INDEX 01 01:03:20
  TRACK 60 AUDIO
    TITLE "0:"
    INDEX 01 01:04:47
  TRACK 61 AUDIO
    TITLE "4:cjc030_02317"
    INDEX 01 01:04:54
  TRACK 62 AUDIO
    TITLE "0:"
    INDEX 01 01:05:54
  TRACK 63 AUDIO
    TITLE "5:cjc030_02318"
    INDEX 01 01:05:62
  TRACK 64 AUDIO
    TITLE "0:"
    INDEX 01 01:07:15
